<svg id="Capa_1" enable-background="new 0 0 512.12 512.12" height="512" viewBox="0 0 512.12 512.12" width="512" xmlns="http://www.w3.org/2000/svg"><g><path d="m497.12 422.457h-14.874v-44.832c0-8.284-6.716-15-15-15h-37.041v-188.421c0-96.023-78.121-174.145-174.145-174.145s-174.145 78.121-174.145 174.145v188.421h-37.04c-8.284 0-15 6.716-15 15v44.832h-14.875c-8.284 0-15 6.716-15 15v59.603c0 8.284 6.716 15 15 15h482.12c8.284 0 15-6.716 15-15v-59.603c0-8.284-6.716-15-15-15zm-385.205-248.253c0-79.481 64.663-144.145 144.145-144.145s144.145 64.663 144.145 144.145v188.421h-288.29zm-52.04 218.421h392.371v29.832h-392.371zm422.245 89.435h-452.12v-29.603h452.12z"/><path d="m317.538 266.793h-122.956c-8.284 0-15 6.716-15 15s6.716 15 15 15h122.955c8.284 0 15-6.716 15-15s-6.715-15-14.999-15z"/><path d="m317.538 206.793h-122.956c-8.284 0-15 6.716-15 15s6.716 15 15 15h122.955c8.284 0 15-6.716 15-15 .001-8.284-6.715-15-14.999-15z"/><path d="m317.538 146.793h-122.956c-8.284 0-15 6.716-15 15s6.716 15 15 15h122.955c8.284 0 15-6.716 15-15 .001-8.284-6.715-15-14.999-15z"/></g></svg>